# xmcd CD database file
#
# Track frame offsets:
#	182
#	14752
#	33815
#	54840
#	71490
#	86715
#	103252
#	124965
#	140490
#	163415
#
# Disc length: 2483 seconds
#
# Revision: 2
# Processed by: cddbd v1.5PL3 Copyright (c) Steve Scherf et al.
# Submitted via: CDex 1.40Beta9
#
DISCID=8d09b10a
DTITLE=Johnny Copeland - Flyin' High
DYEAR=1992
DGENRE=Blues
TTITLE0=Flyin' High (Yesterday)
TTITLE1=Hooked, Hog-Tied and Collared
TTITLE2=Greater Man
TTITLE3=Jambalaya (On The Bayou)
TTITLE4=San Antone
TTITLE5=Thigpen (Cornball)
TTITLE6=Promised Myself
TTITLE7=Love Song
TTITLE8=Circumstances
TTITLE9=Around The World
EXTD=YEAR: 1992 ID3G: 0
EXTT0=
EXTT1=
EXTT2=
EXTT3=
EXTT4=
EXTT5=
EXTT6=
EXTT7=
EXTT8=
EXTT9=
PLAYORDER=
